<svg width="110" height="220" viewBox="0 0 110 220" fill="none" xmlns="http://www.w3.org/2000/svg">
<rect x="3" y="3" width="4" height="4" fill="#D9D9D9"/>
<rect x="13" y="3" width="4" height="4" fill="#D9D9D9"/>
<rect x="23" y="3" width="4" height="4" fill="#D9D9D9"/>
<rect x="33" y="3" width="4" height="4" fill="#D9D9D9"/>
<rect x="43" y="3" width="4" height="4" fill="#D9D9D9"/>
<rect x="53" y="3" width="4" height="4" fill="#D9D9D9"/>
<rect x="63" y="3" width="4" height="4" fill="#D9D9D9"/>
<rect x="73" y="3" width="4" height="4" fill="#D9D9D9"/>
<rect x="83" y="3" width="4" height="4" fill="#D9D9D9"/>
<rect x="93" y="3" width="4" height="4" fill="#D9D9D9"/>
<rect x="103" y="3" width="4" height="4" fill="#D9D9D9"/>
<rect x="3" y="13" width="4" height="4" fill="#D9D9D9"/>
<rect x="13" y="13" width="4" height="4" fill="#D9D9D9"/>
<rect x="23" y="13" width="4" height="4" fill="#D9D9D9"/>
<rect x="33" y="13" width="4" height="4" fill="#D9D9D9"/>
<rect x="43" y="13" width="4" height="4" fill="#D9D9D9"/>
<rect x="53" y="13" width="4" height="4" fill="#D9D9D9"/>
<rect x="63" y="13" width="4" height="4" fill="#D9D9D9"/>
<rect x="73" y="13" width="4" height="4" fill="#D9D9D9"/>
<rect x="83" y="13" width="4" height="4" fill="#D9D9D9"/>
<rect x="93" y="13" width="4" height="4" fill="#D9D9D9"/>
<rect x="103" y="13" width="4" height="4" fill="#D9D9D9"/>
<rect x="3" y="23" width="4" height="4" fill="#D9D9D9"/>
<rect x="13" y="23" width="4" height="4" fill="#D9D9D9"/>
<rect x="23" y="23" width="4" height="4" fill="#D9D9D9"/>
<rect x="33" y="23" width="4" height="4" fill="#D9D9D9"/>
<rect x="43" y="23" width="4" height="4" fill="#D9D9D9"/>
<rect x="53" y="23" width="4" height="4" fill="#D9D9D9"/>
<rect x="63" y="23" width="4" height="4" fill="#D9D9D9"/>
<rect x="73" y="23" width="4" height="4" fill="#D9D9D9"/>
<rect x="83" y="23" width="4" height="4" fill="#D9D9D9"/>
<rect x="93" y="23" width="4" height="4" fill="#D9D9D9"/>
<rect x="103" y="23" width="4" height="4" fill="#D9D9D9"/>
<rect x="3" y="33" width="4" height="4" fill="#D9D9D9"/>
<rect x="13" y="33" width="4" height="4" fill="#D9D9D9"/>
<rect x="23" y="33" width="4" height="4" fill="#D9D9D9"/>
<rect x="33" y="33" width="4" height="4" fill="#D9D9D9"/>
<rect x="43" y="33" width="4" height="4" fill="#D9D9D9"/>
<rect x="53" y="33" width="4" height="4" fill="#D9D9D9"/>
<rect x="63" y="33" width="4" height="4" fill="#D9D9D9"/>
<rect x="73" y="33" width="4" height="4" fill="#D9D9D9"/>
<rect x="83" y="33" width="4" height="4" fill="#D9D9D9"/>
<rect x="93" y="33" width="4" height="4" fill="#D9D9D9"/>
<rect x="103" y="33" width="4" height="4" fill="#D9D9D9"/>
<rect x="3" y="43" width="4" height="4" fill="#D9D9D9"/>
<rect x="13" y="43" width="4" height="4" fill="#D9D9D9"/>
<rect x="23" y="43" width="4" height="4" fill="#D9D9D9"/>
<rect x="33" y="43" width="4" height="4" fill="#D9D9D9"/>
<rect x="43" y="43" width="4" height="4" fill="#D9D9D9"/>
<rect x="53" y="43" width="4" height="4" fill="#D9D9D9"/>
<rect x="63" y="43" width="4" height="4" fill="#D9D9D9"/>
<rect x="73" y="43" width="4" height="4" fill="#D9D9D9"/>
<rect x="83" y="43" width="4" height="4" fill="#D9D9D9"/>
<rect x="93" y="43" width="4" height="4" fill="#D9D9D9"/>
<rect x="103" y="43" width="4" height="4" fill="#D9D9D9"/>
<rect x="3" y="53" width="4" height="4" fill="#D9D9D9"/>
<rect x="13" y="53" width="4" height="4" fill="#D9D9D9"/>
<rect x="23" y="53" width="4" height="4" fill="#D9D9D9"/>
<rect x="33" y="53" width="4" height="4" fill="#D9D9D9"/>
<rect x="43" y="53" width="4" height="4" fill="#D9D9D9"/>
<rect x="53" y="53" width="4" height="4" fill="#D9D9D9"/>
<rect x="63" y="53" width="4" height="4" fill="#D9D9D9"/>
<rect x="73" y="53" width="4" height="4" fill="#D9D9D9"/>
<rect x="83" y="53" width="4" height="4" fill="#D9D9D9"/>
<rect x="93" y="53" width="4" height="4" fill="#D9D9D9"/>
<rect x="103" y="53" width="4" height="4" fill="#D9D9D9"/>
<rect x="3" y="63" width="4" height="4" fill="#D9D9D9"/>
<rect x="13" y="63" width="4" height="4" fill="#D9D9D9"/>
<rect x="23" y="63" width="4" height="4" fill="#D9D9D9"/>
<rect x="33" y="63" width="4" height="4" fill="#D9D9D9"/>
<rect x="43" y="63" width="4" height="4" fill="#D9D9D9"/>
<rect x="53" y="63" width="4" height="4" fill="#D9D9D9"/>
<rect x="63" y="63" width="4" height="4" fill="#D9D9D9"/>
<rect x="73" y="63" width="4" height="4" fill="#D9D9D9"/>
<rect x="83" y="63" width="4" height="4" fill="#D9D9D9"/>
<rect x="93" y="63" width="4" height="4" fill="#D9D9D9"/>
<rect x="103" y="63" width="4" height="4" fill="#D9D9D9"/>
<rect x="3" y="73" width="4" height="4" fill="#D9D9D9"/>
<rect x="13" y="73" width="4" height="4" fill="#D9D9D9"/>
<rect x="23" y="73" width="4" height="4" fill="#D9D9D9"/>
<rect x="33" y="73" width="4" height="4" fill="#D9D9D9"/>
<rect x="43" y="73" width="4" height="4" fill="#D9D9D9"/>
<rect x="53" y="73" width="4" height="4" fill="#D9D9D9"/>
<rect x="63" y="73" width="4" height="4" fill="#D9D9D9"/>
<rect x="73" y="73" width="4" height="4" fill="#D9D9D9"/>
<rect x="83" y="73" width="4" height="4" fill="#D9D9D9"/>
<rect x="93" y="73" width="4" height="4" fill="#D9D9D9"/>
<rect x="103" y="73" width="4" height="4" fill="#D9D9D9"/>
<rect x="3" y="83" width="4" height="4" fill="#D9D9D9"/>
<rect x="13" y="83" width="4" height="4" fill="#D9D9D9"/>
<rect x="23" y="83" width="4" height="4" fill="#D9D9D9"/>
<rect x="33" y="83" width="4" height="4" fill="#D9D9D9"/>
<rect x="43" y="83" width="4" height="4" fill="#D9D9D9"/>
<rect x="53" y="83" width="4" height="4" fill="#D9D9D9"/>
<rect x="63" y="83" width="4" height="4" fill="#D9D9D9"/>
<rect x="73" y="83" width="4" height="4" fill="#D9D9D9"/>
<rect x="83" y="83" width="4" height="4" fill="#D9D9D9"/>
<rect x="93" y="83" width="4" height="4" fill="#D9D9D9"/>
<rect x="103" y="83" width="4" height="4" fill="#D9D9D9"/>
<rect x="3" y="93" width="4" height="4" fill="#D9D9D9"/>
<rect x="13" y="93" width="4" height="4" fill="#D9D9D9"/>
<rect x="23" y="93" width="4" height="4" fill="#D9D9D9"/>
<rect x="33" y="93" width="4" height="4" fill="#D9D9D9"/>
<rect x="43" y="93" width="4" height="4" fill="#D9D9D9"/>
<rect x="53" y="93" width="4" height="4" fill="#D9D9D9"/>
<rect x="63" y="93" width="4" height="4" fill="#D9D9D9"/>
<rect x="73" y="93" width="4" height="4" fill="#D9D9D9"/>
<rect x="83" y="93" width="4" height="4" fill="#D9D9D9"/>
<rect x="93" y="93" width="4" height="4" fill="#D9D9D9"/>
<rect x="103" y="93" width="4" height="4" fill="#D9D9D9"/>
<rect x="3" y="103" width="4" height="4" fill="#D9D9D9"/>
<rect x="13" y="103" width="4" height="4" fill="#D9D9D9"/>
<rect x="23" y="103" width="4" height="4" fill="#D9D9D9"/>
<rect x="33" y="103" width="4" height="4" fill="#D9D9D9"/>
<rect x="43" y="103" width="4" height="4" fill="#D9D9D9"/>
<rect x="53" y="103" width="4" height="4" fill="#D9D9D9"/>
<rect x="63" y="103" width="4" height="4" fill="#D9D9D9"/>
<rect x="73" y="103" width="4" height="4" fill="#D9D9D9"/>
<rect x="83" y="103" width="4" height="4" fill="#D9D9D9"/>
<rect x="93" y="103" width="4" height="4" fill="#D9D9D9"/>
<rect x="103" y="103" width="4" height="4" fill="#D9D9D9"/>
<rect x="3" y="113" width="4" height="4" fill="#D9D9D9"/>
<rect x="13" y="113" width="4" height="4" fill="#D9D9D9"/>
<rect x="23" y="113" width="4" height="4" fill="#D9D9D9"/>
<rect x="33" y="113" width="4" height="4" fill="#D9D9D9"/>
<rect x="43" y="113" width="4" height="4" fill="#D9D9D9"/>
<rect x="53" y="113" width="4" height="4" fill="#D9D9D9"/>
<rect x="63" y="113" width="4" height="4" fill="#D9D9D9"/>
<rect x="73" y="113" width="4" height="4" fill="#D9D9D9"/>
<rect x="83" y="113" width="4" height="4" fill="#D9D9D9"/>
<rect x="93" y="113" width="4" height="4" fill="#D9D9D9"/>
<rect x="103" y="113" width="4" height="4" fill="#D9D9D9"/>
<rect x="3" y="123" width="4" height="4" fill="#D9D9D9"/>
<rect x="13" y="123" width="4" height="4" fill="#D9D9D9"/>
<rect x="23" y="123" width="4" height="4" fill="#D9D9D9"/>
<rect x="33" y="123" width="4" height="4" fill="#D9D9D9"/>
<rect x="43" y="123" width="4" height="4" fill="#D9D9D9"/>
<rect x="53" y="123" width="4" height="4" fill="#D9D9D9"/>
<rect x="63" y="123" width="4" height="4" fill="#D9D9D9"/>
<rect x="73" y="123" width="4" height="4" fill="#D9D9D9"/>
<rect x="83" y="123" width="4" height="4" fill="#D9D9D9"/>
<rect x="93" y="123" width="4" height="4" fill="#D9D9D9"/>
<rect x="103" y="123" width="4" height="4" fill="#D9D9D9"/>
<rect x="3" y="133" width="4" height="4" fill="#D9D9D9"/>
<rect x="13" y="133" width="4" height="4" fill="#D9D9D9"/>
<rect x="23" y="133" width="4" height="4" fill="#D9D9D9"/>
<rect x="33" y="133" width="4" height="4" fill="#D9D9D9"/>
<rect x="43" y="133" width="4" height="4" fill="#D9D9D9"/>
<rect x="53" y="133" width="4" height="4" fill="#D9D9D9"/>
<rect x="63" y="133" width="4" height="4" fill="#D9D9D9"/>
<rect x="73" y="133" width="4" height="4" fill="#D9D9D9"/>
<rect x="83" y="133" width="4" height="4" fill="#D9D9D9"/>
<rect x="93" y="133" width="4" height="4" fill="#D9D9D9"/>
<rect x="103" y="133" width="4" height="4" fill="#D9D9D9"/>
<rect x="3" y="143" width="4" height="4" fill="#D9D9D9"/>
<rect x="13" y="143" width="4" height="4" fill="#D9D9D9"/>
<rect x="23" y="143" width="4" height="4" fill="#D9D9D9"/>
<rect x="33" y="143" width="4" height="4" fill="#D9D9D9"/>
<rect x="43" y="143" width="4" height="4" fill="#D9D9D9"/>
<rect x="53" y="143" width="4" height="4" fill="#D9D9D9"/>
<rect x="63" y="143" width="4" height="4" fill="#D9D9D9"/>
<rect x="73" y="143" width="4" height="4" fill="#D9D9D9"/>
<rect x="83" y="143" width="4" height="4" fill="#D9D9D9"/>
<rect x="93" y="143" width="4" height="4" fill="#D9D9D9"/>
<rect x="103" y="143" width="4" height="4" fill="#D9D9D9"/>
<rect x="3" y="153" width="4" height="4" fill="#D9D9D9"/>
<rect x="13" y="153" width="4" height="4" fill="#D9D9D9"/>
<rect x="23" y="153" width="4" height="4" fill="#D9D9D9"/>
<rect x="33" y="153" width="4" height="4" fill="#D9D9D9"/>
<rect x="43" y="153" width="4" height="4" fill="#D9D9D9"/>
<rect x="53" y="153" width="4" height="4" fill="#D9D9D9"/>
<rect x="63" y="153" width="4" height="4" fill="#D9D9D9"/>
<rect x="73" y="153" width="4" height="4" fill="#D9D9D9"/>
<rect x="83" y="153" width="4" height="4" fill="#D9D9D9"/>
<rect x="93" y="153" width="4" height="4" fill="#D9D9D9"/>
<rect x="103" y="153" width="4" height="4" fill="#D9D9D9"/>
<rect x="3" y="163" width="4" height="4" fill="#D9D9D9"/>
<rect x="13" y="163" width="4" height="4" fill="#D9D9D9"/>
<rect x="23" y="163" width="4" height="4" fill="#D9D9D9"/>
<rect x="33" y="163" width="4" height="4" fill="#D9D9D9"/>
<rect x="43" y="163" width="4" height="4" fill="#D9D9D9"/>
<rect x="53" y="163" width="4" height="4" fill="#D9D9D9"/>
<rect x="63" y="163" width="4" height="4" fill="#D9D9D9"/>
<rect x="73" y="163" width="4" height="4" fill="#D9D9D9"/>
<rect x="83" y="163" width="4" height="4" fill="#D9D9D9"/>
<rect x="93" y="163" width="4" height="4" fill="#D9D9D9"/>
<rect x="103" y="163" width="4" height="4" fill="#D9D9D9"/>
<rect x="3" y="173" width="4" height="4" fill="#D9D9D9"/>
<rect x="13" y="173" width="4" height="4" fill="#D9D9D9"/>
<rect x="23" y="173" width="4" height="4" fill="#D9D9D9"/>
<rect x="33" y="173" width="4" height="4" fill="#D9D9D9"/>
<rect x="43" y="173" width="4" height="4" fill="#D9D9D9"/>
<rect x="53" y="173" width="4" height="4" fill="#D9D9D9"/>
<rect x="63" y="173" width="4" height="4" fill="#D9D9D9"/>
<rect x="73" y="173" width="4" height="4" fill="#D9D9D9"/>
<rect x="83" y="173" width="4" height="4" fill="#D9D9D9"/>
<rect x="93" y="173" width="4" height="4" fill="#D9D9D9"/>
<rect x="103" y="173" width="4" height="4" fill="#D9D9D9"/>
<rect x="3" y="183" width="4" height="4" fill="#D9D9D9"/>
<rect x="13" y="183" width="4" height="4" fill="#D9D9D9"/>
<rect x="23" y="183" width="4" height="4" fill="#D9D9D9"/>
<rect x="33" y="183" width="4" height="4" fill="#D9D9D9"/>
<rect x="43" y="183" width="4" height="4" fill="#D9D9D9"/>
<rect x="53" y="183" width="4" height="4" fill="#D9D9D9"/>
<rect x="63" y="183" width="4" height="4" fill="#D9D9D9"/>
<rect x="73" y="183" width="4" height="4" fill="#D9D9D9"/>
<rect x="83" y="183" width="4" height="4" fill="#D9D9D9"/>
<rect x="93" y="183" width="4" height="4" fill="#D9D9D9"/>
<rect x="103" y="183" width="4" height="4" fill="#D9D9D9"/>
<rect x="3" y="193" width="4" height="4" fill="#D9D9D9"/>
<rect x="13" y="193" width="4" height="4" fill="#D9D9D9"/>
<rect x="23" y="193" width="4" height="4" fill="#D9D9D9"/>
<rect x="33" y="193" width="4" height="4" fill="#D9D9D9"/>
<rect x="43" y="193" width="4" height="4" fill="#D9D9D9"/>
<rect x="53" y="193" width="4" height="4" fill="#D9D9D9"/>
<rect x="63" y="193" width="4" height="4" fill="#D9D9D9"/>
<rect x="73" y="193" width="4" height="4" fill="#D9D9D9"/>
<rect x="83" y="193" width="4" height="4" fill="#D9D9D9"/>
<rect x="93" y="193" width="4" height="4" fill="#D9D9D9"/>
<rect x="103" y="193" width="4" height="4" fill="#D9D9D9"/>
<rect x="3" y="203" width="4" height="4" fill="#D9D9D9"/>
<rect x="13" y="203" width="4" height="4" fill="#D9D9D9"/>
<rect x="23" y="203" width="4" height="4" fill="#D9D9D9"/>
<rect x="33" y="203" width="4" height="4" fill="#D9D9D9"/>
<rect x="43" y="203" width="4" height="4" fill="#D9D9D9"/>
<rect x="53" y="203" width="4" height="4" fill="#D9D9D9"/>
<rect x="63" y="203" width="4" height="4" fill="#D9D9D9"/>
<rect x="73" y="203" width="4" height="4" fill="#D9D9D9"/>
<rect x="83" y="203" width="4" height="4" fill="#D9D9D9"/>
<rect x="93" y="203" width="4" height="4" fill="#D9D9D9"/>
<rect x="103" y="203" width="4" height="4" fill="#D9D9D9"/>
<rect x="3" y="213" width="4" height="4" fill="#D9D9D9"/>
<rect x="13" y="213" width="4" height="4" fill="#D9D9D9"/>
<rect x="23" y="213" width="4" height="4" fill="#D9D9D9"/>
<rect x="33" y="213" width="4" height="4" fill="#D9D9D9"/>
<rect x="43" y="213" width="4" height="4" fill="#D9D9D9"/>
<rect x="53" y="213" width="4" height="4" fill="#D9D9D9"/>
<rect x="63" y="213" width="4" height="4" fill="#D9D9D9"/>
<rect x="73" y="213" width="4" height="4" fill="#D9D9D9"/>
<rect x="83" y="213" width="4" height="4" fill="#D9D9D9"/>
<rect x="93" y="213" width="4" height="4" fill="#D9D9D9"/>
<rect x="103" y="213" width="4" height="4" fill="#D9D9D9"/>
</svg>
