<svg width="56" height="56" viewBox="0 0 56 56" fill="none" xmlns="http://www.w3.org/2000/svg">
<rect width="56" height="56" fill="white"/>
<path fill-rule="evenodd" clip-rule="evenodd" d="M33.6 33.6C36.6928 33.6 39.2 31.0928 39.2 28C39.2 24.9072 36.6928 22.4 33.6 22.4C30.5072 22.4 28 24.9072 28 28C28 31.0928 30.5072 33.6 33.6 33.6ZM33.6 33.376C36.5691 33.376 38.976 30.9691 38.976 28C38.976 25.0309 36.5691 22.624 33.6 22.624C30.6309 22.624 28.224 25.0309 28.224 28C28.224 30.9691 30.6309 33.376 33.6 33.376Z" fill="#C12323"/>
<path fill-rule="evenodd" clip-rule="evenodd" d="M28 42C35.732 42 42 35.732 42 28C42 20.268 35.732 14 28 14C20.268 14 14 20.268 14 28C14 35.732 20.268 42 28 42ZM28 35.84C32.3299 35.84 35.84 32.3299 35.84 28C35.84 23.6701 32.3299 20.16 28 20.16C23.6701 20.16 20.16 23.6701 20.16 28C20.16 32.3299 23.6701 35.84 28 35.84Z" fill="#212121"/>
<circle cx="18.48" cy="18.48" r="4.48" fill="#C12323"/>
</svg>
