<svg width="56" height="56" viewBox="0 0 56 56" fill="none" xmlns="http://www.w3.org/2000/svg">
<rect width="56" height="56" fill="white"/>
<path fill-rule="evenodd" clip-rule="evenodd" d="M36 36C40.4183 36 44 32.4183 44 28C44 23.5817 40.4183 20 36 20C31.5817 20 28 23.5817 28 28C28 32.4183 31.5817 36 36 36ZM36 35.68C40.2415 35.68 43.68 32.2415 43.68 28C43.68 23.7585 40.2415 20.32 36 20.32C31.7585 20.32 28.32 23.7585 28.32 28C28.32 32.2415 31.7585 35.68 36 35.68Z" fill="#C12323"/>
<path fill-rule="evenodd" clip-rule="evenodd" d="M28 48C39.0457 48 48 39.0457 48 28C48 16.9543 39.0457 8 28 8C16.9543 8 8 16.9543 8 28C8 39.0457 16.9543 48 28 48ZM28 39.2C34.1856 39.2 39.2 34.1856 39.2 28C39.2 21.8144 34.1856 16.8 28 16.8C21.8144 16.8 16.8 21.8144 16.8 28C16.8 34.1856 21.8144 39.2 28 39.2Z" fill="#212121"/>
<circle cx="14.4" cy="14.4" r="6.4" fill="#C12323"/>
</svg>
