<svg width="28" height="28" viewBox="0 0 28 28" fill="none" xmlns="http://www.w3.org/2000/svg">
<g id="Logo">
<path id="Subtract" fill-rule="evenodd" clip-rule="evenodd" d="M19.6 19.6C22.6928 19.6 25.2 17.0928 25.2 14C25.2 10.9072 22.6928 8.4 19.6 8.4C16.5072 8.4 14 10.9072 14 14C14 17.0928 16.5072 19.6 19.6 19.6ZM19.6 19.376C22.5691 19.376 24.976 16.9691 24.976 14C24.976 11.0309 22.5691 8.624 19.6 8.624C16.6309 8.624 14.224 11.0309 14.224 14C14.224 16.9691 16.6309 19.376 19.6 19.376Z" fill="#C12323"/>
<path id="Subtract_2" fill-rule="evenodd" clip-rule="evenodd" d="M14 28C21.732 28 28 21.732 28 14C28 6.26801 21.732 0 14 0C6.26801 0 0 6.26801 0 14C0 21.732 6.26801 28 14 28ZM14 21.84C18.3299 21.84 21.84 18.3299 21.84 14C21.84 9.67009 18.3299 6.16 14 6.16C9.67009 6.16 6.16 9.67009 6.16 14C6.16 18.3299 9.67009 21.84 14 21.84Z" fill="#212121"/>
<circle id="Ellipse 1" cx="4.48" cy="4.48" r="4.48" fill="#C12323"/>
</g>
</svg>
