<svg width="1000" height="1000" viewBox="0 0 1000 1000" fill="none" xmlns="http://www.w3.org/2000/svg">
<rect width="1000" height="1000" rx="500" fill="black"/>
<path fill-rule="evenodd" clip-rule="evenodd" d="M600 600C655.228 600 700 555.228 700 500C700 444.772 655.228 400 600 400C544.772 400 500 444.772 500 500C500 555.228 544.772 600 600 600ZM600 596C653.019 596 696 553.019 696 500C696 446.981 653.019 404 600 404C546.981 404 504 446.981 504 500C504 553.019 546.981 596 600 596Z" fill="#C12323"/>
<path fill-rule="evenodd" clip-rule="evenodd" d="M500 750C638.071 750 750 638.071 750 500C750 361.929 638.071 250 500 250C361.929 250 250 361.929 250 500C250 638.071 361.929 750 500 750ZM500 640C577.32 640 640 577.32 640 500C640 422.68 577.32 360 500 360C422.68 360 360 422.68 360 500C360 577.32 422.68 640 500 640Z" fill="white"/>
<circle cx="330" cy="330" r="80" fill="#C12323"/>
</svg>
