<svg width="110" height="110" viewBox="0 0 110 110" fill="none" xmlns="http://www.w3.org/2000/svg">
<rect x="3" y="3" width="4" height="4" fill="#D9D9D9"/>
<rect x="13" y="3" width="4" height="4" fill="#D9D9D9"/>
<rect x="23" y="3" width="4" height="4" fill="#D9D9D9"/>
<rect x="33" y="3" width="4" height="4" fill="#D9D9D9"/>
<rect x="43" y="3" width="4" height="4" fill="#D9D9D9"/>
<rect x="53" y="3" width="4" height="4" fill="#D9D9D9"/>
<rect x="63" y="3" width="4" height="4" fill="#D9D9D9"/>
<rect x="73" y="3" width="4" height="4" fill="#D9D9D9"/>
<rect x="83" y="3" width="4" height="4" fill="#D9D9D9"/>
<rect x="93" y="3" width="4" height="4" fill="#D9D9D9"/>
<rect x="103" y="3" width="4" height="4" fill="#D9D9D9"/>
<rect x="3" y="13" width="4" height="4" fill="#D9D9D9"/>
<rect x="13" y="13" width="4" height="4" fill="#D9D9D9"/>
<rect x="23" y="13" width="4" height="4" fill="#D9D9D9"/>
<rect x="33" y="13" width="4" height="4" fill="#D9D9D9"/>
<rect x="43" y="13" width="4" height="4" fill="#D9D9D9"/>
<rect x="53" y="13" width="4" height="4" fill="#D9D9D9"/>
<rect x="63" y="13" width="4" height="4" fill="#D9D9D9"/>
<rect x="73" y="13" width="4" height="4" fill="#D9D9D9"/>
<rect x="83" y="13" width="4" height="4" fill="#D9D9D9"/>
<rect x="93" y="13" width="4" height="4" fill="#D9D9D9"/>
<rect x="103" y="13" width="4" height="4" fill="#D9D9D9"/>
<rect x="3" y="23" width="4" height="4" fill="#D9D9D9"/>
<rect x="13" y="23" width="4" height="4" fill="#D9D9D9"/>
<rect x="23" y="23" width="4" height="4" fill="#D9D9D9"/>
<rect x="33" y="23" width="4" height="4" fill="#D9D9D9"/>
<rect x="43" y="23" width="4" height="4" fill="#D9D9D9"/>
<rect x="53" y="23" width="4" height="4" fill="#D9D9D9"/>
<rect x="63" y="23" width="4" height="4" fill="#D9D9D9"/>
<rect x="73" y="23" width="4" height="4" fill="#D9D9D9"/>
<rect x="83" y="23" width="4" height="4" fill="#D9D9D9"/>
<rect x="93" y="23" width="4" height="4" fill="#D9D9D9"/>
<rect x="103" y="23" width="4" height="4" fill="#D9D9D9"/>
<rect x="3" y="33" width="4" height="4" fill="#D9D9D9"/>
<rect x="13" y="33" width="4" height="4" fill="#D9D9D9"/>
<rect x="23" y="33" width="4" height="4" fill="#D9D9D9"/>
<rect x="33" y="33" width="4" height="4" fill="#D9D9D9"/>
<rect x="43" y="33" width="4" height="4" fill="#D9D9D9"/>
<rect x="53" y="33" width="4" height="4" fill="#D9D9D9"/>
<rect x="63" y="33" width="4" height="4" fill="#D9D9D9"/>
<rect x="73" y="33" width="4" height="4" fill="#D9D9D9"/>
<rect x="83" y="33" width="4" height="4" fill="#D9D9D9"/>
<rect x="93" y="33" width="4" height="4" fill="#D9D9D9"/>
<rect x="103" y="33" width="4" height="4" fill="#D9D9D9"/>
<rect x="3" y="43" width="4" height="4" fill="#D9D9D9"/>
<rect x="13" y="43" width="4" height="4" fill="#D9D9D9"/>
<rect x="23" y="43" width="4" height="4" fill="#D9D9D9"/>
<rect x="33" y="43" width="4" height="4" fill="#D9D9D9"/>
<rect x="43" y="43" width="4" height="4" fill="#D9D9D9"/>
<rect x="53" y="43" width="4" height="4" fill="#D9D9D9"/>
<rect x="63" y="43" width="4" height="4" fill="#D9D9D9"/>
<rect x="73" y="43" width="4" height="4" fill="#D9D9D9"/>
<rect x="83" y="43" width="4" height="4" fill="#D9D9D9"/>
<rect x="93" y="43" width="4" height="4" fill="#D9D9D9"/>
<rect x="103" y="43" width="4" height="4" fill="#D9D9D9"/>
<rect x="3" y="53" width="4" height="4" fill="#D9D9D9"/>
<rect x="13" y="53" width="4" height="4" fill="#D9D9D9"/>
<rect x="23" y="53" width="4" height="4" fill="#D9D9D9"/>
<rect x="33" y="53" width="4" height="4" fill="#D9D9D9"/>
<rect x="43" y="53" width="4" height="4" fill="#D9D9D9"/>
<rect x="53" y="53" width="4" height="4" fill="#D9D9D9"/>
<rect x="63" y="53" width="4" height="4" fill="#D9D9D9"/>
<rect x="73" y="53" width="4" height="4" fill="#D9D9D9"/>
<rect x="83" y="53" width="4" height="4" fill="#D9D9D9"/>
<rect x="93" y="53" width="4" height="4" fill="#D9D9D9"/>
<rect x="103" y="53" width="4" height="4" fill="#D9D9D9"/>
<rect x="3" y="63" width="4" height="4" fill="#D9D9D9"/>
<rect x="13" y="63" width="4" height="4" fill="#D9D9D9"/>
<rect x="23" y="63" width="4" height="4" fill="#D9D9D9"/>
<rect x="33" y="63" width="4" height="4" fill="#D9D9D9"/>
<rect x="43" y="63" width="4" height="4" fill="#D9D9D9"/>
<rect x="53" y="63" width="4" height="4" fill="#D9D9D9"/>
<rect x="63" y="63" width="4" height="4" fill="#D9D9D9"/>
<rect x="73" y="63" width="4" height="4" fill="#D9D9D9"/>
<rect x="83" y="63" width="4" height="4" fill="#D9D9D9"/>
<rect x="93" y="63" width="4" height="4" fill="#D9D9D9"/>
<rect x="103" y="63" width="4" height="4" fill="#D9D9D9"/>
<rect x="3" y="73" width="4" height="4" fill="#D9D9D9"/>
<rect x="13" y="73" width="4" height="4" fill="#D9D9D9"/>
<rect x="23" y="73" width="4" height="4" fill="#D9D9D9"/>
<rect x="33" y="73" width="4" height="4" fill="#D9D9D9"/>
<rect x="43" y="73" width="4" height="4" fill="#D9D9D9"/>
<rect x="53" y="73" width="4" height="4" fill="#D9D9D9"/>
<rect x="63" y="73" width="4" height="4" fill="#D9D9D9"/>
<rect x="73" y="73" width="4" height="4" fill="#D9D9D9"/>
<rect x="83" y="73" width="4" height="4" fill="#D9D9D9"/>
<rect x="93" y="73" width="4" height="4" fill="#D9D9D9"/>
<rect x="103" y="73" width="4" height="4" fill="#D9D9D9"/>
<rect x="3" y="83" width="4" height="4" fill="#D9D9D9"/>
<rect x="13" y="83" width="4" height="4" fill="#D9D9D9"/>
<rect x="23" y="83" width="4" height="4" fill="#D9D9D9"/>
<rect x="33" y="83" width="4" height="4" fill="#D9D9D9"/>
<rect x="43" y="83" width="4" height="4" fill="#D9D9D9"/>
<rect x="53" y="83" width="4" height="4" fill="#D9D9D9"/>
<rect x="63" y="83" width="4" height="4" fill="#D9D9D9"/>
<rect x="73" y="83" width="4" height="4" fill="#D9D9D9"/>
<rect x="83" y="83" width="4" height="4" fill="#D9D9D9"/>
<rect x="93" y="83" width="4" height="4" fill="#D9D9D9"/>
<rect x="103" y="83" width="4" height="4" fill="#D9D9D9"/>
<rect x="3" y="93" width="4" height="4" fill="#D9D9D9"/>
<rect x="13" y="93" width="4" height="4" fill="#D9D9D9"/>
<rect x="23" y="93" width="4" height="4" fill="#D9D9D9"/>
<rect x="33" y="93" width="4" height="4" fill="#D9D9D9"/>
<rect x="43" y="93" width="4" height="4" fill="#D9D9D9"/>
<rect x="53" y="93" width="4" height="4" fill="#D9D9D9"/>
<rect x="63" y="93" width="4" height="4" fill="#D9D9D9"/>
<rect x="73" y="93" width="4" height="4" fill="#D9D9D9"/>
<rect x="83" y="93" width="4" height="4" fill="#D9D9D9"/>
<rect x="93" y="93" width="4" height="4" fill="#D9D9D9"/>
<rect x="103" y="93" width="4" height="4" fill="#D9D9D9"/>
<rect x="3" y="103" width="4" height="4" fill="#D9D9D9"/>
<rect x="13" y="103" width="4" height="4" fill="#D9D9D9"/>
<rect x="23" y="103" width="4" height="4" fill="#D9D9D9"/>
<rect x="33" y="103" width="4" height="4" fill="#D9D9D9"/>
<rect x="43" y="103" width="4" height="4" fill="#D9D9D9"/>
<rect x="53" y="103" width="4" height="4" fill="#D9D9D9"/>
<rect x="63" y="103" width="4" height="4" fill="#D9D9D9"/>
<rect x="73" y="103" width="4" height="4" fill="#D9D9D9"/>
<rect x="83" y="103" width="4" height="4" fill="#D9D9D9"/>
<rect x="93" y="103" width="4" height="4" fill="#D9D9D9"/>
<rect x="103" y="103" width="4" height="4" fill="#D9D9D9"/>
</svg>
